<?xml version="1.0" standalone="no"?>
<!DOCTYPE svg PUBLIC "-//W3C//DTD SVG 20010904//EN"
 "http://www.w3.org/TR/2001/REC-SVG-20010904/DTD/svg10.dtd">
<svg version="1.0" xmlns="http://www.w3.org/2000/svg"
 width="700.000000pt" height="700.000000pt" viewBox="0 0 700.000000 700.000000"
 preserveAspectRatio="xMidYMid meet">
<metadata>
Created by potrace 1.14, written by Peter Selinger 2001-2017
</metadata>
<g transform="translate(0.000000,700.000000) scale(0.100000,-0.100000)"
fill="#000000" stroke="none">
<path d="M1215 6986 c-73 -33 -86 -57 -145 -266 -12 -41 -34 -118 -50 -170
-16 -52 -40 -133 -54 -180 -13 -47 -35 -119 -47 -160 -13 -41 -24 -78 -25 -82
-1 -5 -3 -10 -4 -13 -3 -6 -3 -6 -14 -55 -5 -19 -11 -39 -14 -45 -4 -5 -8 -19
-9 -30 -2 -11 -13 -27 -25 -35 -145 -97 -263 -209 -339 -321 -80 -118 -153
-300 -177 -440 -4 -24 -7 -993 -7 -2154 l0 -2110 27 -103 c34 -125 86 -242
152 -342 59 -89 197 -231 281 -287 84 -57 220 -125 275 -138 8 -3 39 -11 69
-19 30 -8 77 -19 105 -23 64 -10 4473 -11 4542 -1 28 4 90 19 138 33 392 114
687 446 760 855 22 126 24 4135 2 4280 -20 129 -73 282 -129 375 -65 107 -88
136 -182 230 -72 73 -201 170 -249 188 -12 5 -17 14 -13 27 3 11 1 18 -3 15
-5 -3 -14 14 -20 37 -6 24 -15 54 -20 68 -8 21 -26 87 -36 125 -1 6 -19 66
-39 135 -21 69 -38 130 -40 135 -1 6 -5 17 -8 25 -6 14 -29 99 -30 110 0 3 -6
20 -14 38 -7 17 -10 32 -7 32 4 0 2 6 -4 13 -6 7 -13 24 -15 37 -2 14 -7 32
-10 40 -3 8 -11 34 -17 56 -14 55 -45 92 -94 115 -36 16 -67 19 -241 18 -224
0 -251 -6 -292 -68 -25 -37 -25 -33 -26 -286 0 -110 -4 -173 -11 -177 -8 -6
-8 -8 0 -8 6 0 11 -16 11 -35 0 -22 -4 -32 -11 -28 -8 5 -7 2 0 -8 14 -17 15
-50 2 -66 -5 -7 -5 -14 2 -18 5 -3 10 -15 10 -27 0 -15 -5 -19 -17 -14 -16 5
-16 5 -2 -6 18 -15 22 -88 5 -88 -7 0 -8 -3 -1 -8 6 -4 11 -19 11 -34 l1 -28
-201 0 c-738 -1 -3172 0 -3176 1 -3 1 -14 1 -25 0 -20 -2 -20 3 -20 375 0 431
-2 447 -66 493 l-40 29 -197 1 c-145 0 -205 -3 -227 -13z"/>
</g>
</svg>
